<svg width="24" height="25" viewBox="0 0 24 25" fill="none" xmlns="http://www.w3.org/2000/svg">
<path d="M13.3 17.9014L8.70005 13.3014C8.60005 13.2014 8.52938 13.093 8.48805 12.9764C8.44605 12.8597 8.42505 12.7347 8.42505 12.6014C8.42505 12.468 8.44605 12.343 8.48805 12.2264C8.52938 12.1097 8.60005 12.0014 8.70005 11.9014L13.3 7.30137C13.4834 7.11803 13.7167 7.02637 14 7.02637C14.2834 7.02637 14.5167 7.11803 14.7 7.30137C14.8834 7.4847 14.975 7.71803 14.975 8.00137C14.975 8.2847 14.8834 8.51803 14.7 8.70137L10.8 12.6014L14.7 16.5014C14.8834 16.6847 14.975 16.918 14.975 17.2014C14.975 17.4847 14.8834 17.718 14.7 17.9014C14.5167 18.0847 14.2834 18.1764 14 18.1764C13.7167 18.1764 13.4834 18.0847 13.3 17.9014V17.9014Z" fill="white"/>
</svg>