<?xml version="1.0" encoding="utf-8"?>
<!-- Generator: Adobe Illustrator 25.2.3, SVG Export Plug-In . SVG Version: 6.00 Build 0)  -->
<svg version="1.1" id="Layer_1" xmlns="http://www.w3.org/2000/svg" xmlns:xlink="http://www.w3.org/1999/xlink" x="0px" y="0px"
	 viewBox="0 0 120 120" style="enable-background:new 0 0 120 120;" xml:space="preserve">
<style type="text/css">
	.st0{fill:#FFFFFF;}
</style>
<g>
	<path class="st0" d="M110.3,21.9c0-1.3-0.1-2.6,0-3.8c0.1-0.9-0.2-1.4-1.2-1.7C93.2,11.2,77.3,6,61.3,0.8c-0.9-0.3-1.7-0.3-2.7,0
		C42.7,6,26.8,11.2,10.8,16.4c-1,0.3-1.2,0.7-1.1,1.7c0.2,7.9,0.9,15.8,2,23.7c1.5,10.5,3.7,20.8,7.2,30.9
		C26,93.5,40,108.4,59,119.1c0.8,0.4,1.3,0.4,2.1,0c1.8-1.1,3.7-2.1,5.6-3.3c9.4-6.1,17.5-13.5,24.1-22.6
		c5.6-7.8,9.4-16.5,12.1-25.7C107.3,52.6,109.4,37.4,110.3,21.9z"/>
	<path d="M110.3,21.9c-1,15.5-3,30.7-7.5,45.6c-2.8,9.2-6.5,17.9-12.1,25.7c-6.6,9.1-14.7,16.5-24.1,22.6c-1.8,1.2-3.7,2.2-5.6,3.3
		c-0.7,0.5-1.3,0.4-2.1,0C40,108.4,26,93.5,18.9,72.6c-3.5-10.1-5.7-20.4-7.2-30.9c-1.1-7.8-1.8-15.7-2-23.7c0-1,0.2-1.4,1.1-1.7
		C26.8,11.2,42.7,6,58.7,0.8c0.9-0.3,1.7-0.3,2.7,0c16,5.2,31.9,10.4,47.9,15.6c1,0.3,1.2,0.7,1.2,1.7
		C110.3,19.3,110.3,20.6,110.3,21.9z M103.1,22c-0.5-0.2-0.8-0.3-1.2-0.4c-13.7-4.5-27.4-8.9-41-13.3c-0.6-0.2-1.4-0.2-2.1,0
		c-13.6,4.4-27.1,8.8-40.7,13.2c-1.1,0.3-1.3,0.8-1.2,1.9c0.5,4.9,0.8,9.7,1.4,14.6c1.3,10.5,3.4,20.8,6.7,30.9
		C31,87.3,42.8,101,59.2,111c0.6,0.4,1,0.4,1.6,0c10.4-6.4,19.2-14.4,25.9-24.6c4.8-7.4,7.9-15.6,10.2-24.1
		c2.8-10,4.4-20.2,5.5-30.5C102.7,28.6,102.9,25.3,103.1,22z"/>
	<path class="st0" d="M103.1,22c-0.3,3.4-0.5,6.6-0.8,9.9c-1,10.3-2.7,20.5-5.5,30.5c-2.4,8.5-5.4,16.7-10.2,24.1
		c-6.7,10.2-15.5,18.2-25.9,24.6c-0.6,0.4-1,0.3-1.6,0C42.8,101,31,87.3,25,68.8c-3.3-10.1-5.4-20.4-6.7-30.9
		c-0.6-4.8-0.9-9.7-1.4-14.6c-0.1-1,0.1-1.5,1.2-1.9c13.6-4.4,27.1-8.8,40.7-13.2c0.6-0.2,1.4-0.2,2.1,0c13.7,4.4,27.4,8.9,41,13.3
		C102.3,21.6,102.7,21.8,103.1,22z M60.1,106.1c0.3-0.1,0.4-0.2,0.5-0.2c8.5-5.6,15.8-12.3,21.6-20.7c5-7.3,8-15.4,10.4-23.9
		c2.7-9.5,4.2-19.2,5.2-29c0.2-2.4,0.4-4.8,0.6-7.2c-12.8-4.2-25.5-8.3-38.3-12.5C60.1,43.9,60.1,74.9,60.1,106.1z"/>
	<path d="M60.1,106.1c0-31.2,0-62.2,0-93.4c12.8,4.2,25.5,8.3,38.3,12.5c-0.2,2.4-0.4,4.8-0.6,7.2c-1,9.8-2.6,19.5-5.2,29
		c-2.4,8.4-5.4,16.6-10.4,23.9c-5.8,8.4-13.1,15.2-21.6,20.7C60.4,105.9,60.3,106,60.1,106.1z"/>
</g>
</svg>
